<svg width="18" height="19" viewBox="0 0 18 19" xmlns="http://www.w3.org/2000/svg"><title>LinkedIn</title><path d="M15.338 16.19h-2.669v-4.41c0-1.051-.018-2.403-1.388-2.403-1.388 0-1.6 1.146-1.6 2.328v4.485H7.014V7.123h2.558v1.24h.037c.357-.713 1.227-1.465 2.526-1.465 2.704 0 3.203 1.877 3.203 4.32v4.972zM4.004 5.885c-.858 0-1.55-.733-1.55-1.635s.692-1.634 1.55-1.634c.853 0 1.547.732 1.547 1.634 0 .902-.694 1.635-1.547 1.635zM2.666 16.19h2.673V7.123H2.666v9.067zM16.667 0H1.327C.595 0 0 .613 0 1.37V17.63C0 18.386.595 19 1.327 19h15.34c.734 0 1.332-.614 1.332-1.371V1.37c0-.757-.598-1.37-1.332-1.37z" fill="#0AAB2A" fill-rule="evenodd"/></svg>