<svg width="25" height="24" viewBox="0 0 25 24" xmlns="http://www.w3.org/2000/svg"><title>octocat</title><path d="M12.32.455c-6.626 0-12 5.373-12 12.002 0 5.302 3.438 9.8 8.207 11.387.6.11.82-.26.82-.579 0-.284-.01-1.04-.017-2.04-3.338.725-4.042-1.61-4.042-1.61-.546-1.386-1.333-1.755-1.333-1.755-1.09-.744.083-.73.083-.73 1.204.085 1.838 1.238 1.838 1.238 1.07 1.833 2.809 1.304 3.493.996.109-.775.419-1.304.762-1.604-2.665-.302-5.467-1.332-5.467-5.931 0-1.31.468-2.382 1.235-3.22-.123-.304-.535-1.525.118-3.177 0 0 1.007-.322 3.3 1.23.957-.266 1.984-.398 3.005-.404 1.02.006 2.046.138 3.004.405 2.291-1.553 3.297-1.23 3.297-1.23.655 1.651.243 2.872.12 3.176.77.838 1.233 1.91 1.233 3.22 0 4.61-2.806 5.625-5.479 5.922.43.37.814 1.103.814 2.223 0 1.604-.014 2.898-.014 3.291 0 .322.216.695.825.578 4.765-1.59 8.2-6.086 8.2-11.386C24.322 5.828 18.95.455 12.32.455" fill="#0AAB2A" fill-rule="evenodd"/></svg>