<svg width="19" height="15" viewBox="0 0 19 15" xmlns="http://www.w3.org/2000/svg"><title>Twitter</title><path d="M17.066 4.226c0-.164-.003-.327-.01-.49A7.809 7.809 0 0 0 19 1.776a7.96 7.96 0 0 1-2.239.596A3.82 3.82 0 0 0 18.475.277a7.953 7.953 0 0 1-2.475.92A3.948 3.948 0 0 0 13.155 0c-2.153 0-3.899 1.696-3.899 3.786 0 .298.034.587.101.864A11.178 11.178 0 0 1 1.322.694a3.691 3.691 0 0 0-.527 1.903c0 1.314.688 2.473 1.734 3.152-.64-.02-1.24-.19-1.765-.474l-.001.048c0 1.834 1.344 3.365 3.127 3.713a4.017 4.017 0 0 1-1.76.065c.496 1.504 1.935 2.599 3.641 2.63A7.97 7.97 0 0 1 .93 13.35 8.16 8.16 0 0 1 0 13.3 11.273 11.273 0 0 0 5.975 15c7.17 0 11.091-5.77 11.091-10.774z" fill="#0AAB2A" fill-rule="evenodd"/></svg>